<?xml version="1.0" standalone="no"?>
<!DOCTYPE svg PUBLIC "-//W3C//DTD SVG 20010904//EN"
 "http://www.w3.org/TR/2001/REC-SVG-20010904/DTD/svg10.dtd">
<svg version="1.0" xmlns="http://www.w3.org/2000/svg"
 width="1500.000000pt" height="1500.000000pt" viewBox="0 0 1500.000000 1500.000000"
 preserveAspectRatio="xMidYMid meet">

<g transform="translate(0.000000,1500.000000) scale(0.100000,-0.100000)"
fill="#000000" stroke="none">
<path d="M9490 13179 c-102 -41 -89 -128 40 -264 48 -50 72 -85 80 -114 12
-47 17 -48 68 -22 20 10 64 26 97 36 127 36 173 83 162 167 -14 107 -130 166
-209 108 -28 -21 -32 -21 -40 -6 -29 52 -71 85 -119 95 -27 6 -51 11 -52 10
-1 0 -13 -5 -27 -10z m96 -52 c36 -21 95 -94 88 -110 -12 -33 19 -27 61 12 50
46 54 47 94 27 58 -31 80 -107 41 -146 -10 -10 -59 -31 -107 -46 -48 -15 -94
-29 -100 -31 -7 -3 -13 2 -13 10 0 8 -32 50 -72 93 -75 83 -108 130 -108 153
0 43 69 66 116 38z"/>
<path d="M9421 12736 c-29 -31 -78 -186 -86 -274 -12 -123 29 -262 112 -375
21 -28 91 -107 155 -176 139 -146 168 -197 168 -288 0 -78 -21 -134 -88 -237
-29 -43 -52 -84 -52 -91 0 -21 25 -25 56 -9 100 52 194 220 194 348 0 107 -48
187 -229 380 -94 100 -130 146 -159 204 -36 74 -37 78 -37 191 0 64 6 157 13
208 8 62 9 99 2 117 -12 32 -20 33 -49 2z"/>
<path d="M9207 12012 c-27 -30 -49 -103 -50 -167 -1 -81 29 -144 132 -270 45
-55 88 -119 98 -143 15 -40 15 -47 -1 -100 -36 -117 -32 -135 21 -102 37 22
75 97 81 160 6 65 -29 135 -124 246 -110 129 -118 147 -112 269 3 55 4 106 1
113 -7 17 -27 15 -46 -6z"/>
<path d="M8910 11843 c-33 -12 -70 -57 -70 -86 0 -26 -3 -28 -25 -23 -37 9
-103 -21 -121 -56 -22 -42 -11 -93 24 -116 19 -13 49 -17 117 -18 49 -1 102
-5 117 -9 24 -6 28 -4 37 26 6 19 19 59 30 89 33 89 21 176 -24 194 -20 7 -64
7 -85 -1z m64 -103 c0 -25 -8 -66 -18 -91 l-18 -46 -84 -7 c-91 -8 -124 2
-124 34 0 11 10 30 21 41 22 22 29 22 112 3 27 -6 27 -6 27 43 0 57 14 75 55
71 29 -3 30 -5 29 -48z"/>
<path d="M9895 11234 c-323 -24 -575 -74 -882 -175 -150 -50 -198 -78 -175
-101 8 -8 70 4 234 45 470 118 623 141 943 141 306 0 543 -39 711 -118 209
-98 230 -226 57 -354 -240 -177 -616 -281 -1224 -337 -380 -35 -626 -30 -989
20 -223 30 -279 34 -287 22 -13 -21 57 -43 252 -81 262 -50 365 -60 615 -59
342 1 750 34 927 73 24 6 76 15 115 20 217 30 501 137 654 246 34 24 87 71
118 105 31 34 58 60 61 57 3 -3 9 -62 13 -131 49 -778 -313 -1281 -1078 -1497
-241 -68 -495 -154 -519 -176 -3 -3 0 -9 5 -14 30 -30 648 112 829 189 590
253 876 718 852 1386 -7 175 -9 191 -68 376 -30 96 -48 136 -75 167 -68 80
-261 153 -479 182 -88 11 -511 21 -610 14z"/>
<path d="M1467 11177 c-43 -32 -104 -256 -141 -517 -58 -402 -76 -691 -76
-1178 l0 -359 -22 -20 c-13 -11 -52 -40 -88 -65 -162 -114 -222 -237 -155
-317 36 -41 117 -78 211 -93 77 -13 79 -14 100 -53 l20 -40 108 -3 c121 -3
136 3 136 54 0 43 14 52 159 99 298 97 518 229 723 436 111 112 178 207 240
340 41 87 48 96 94 121 42 23 287 128 297 128 3 0 -4 -30 -15 -67 -26 -93 -48
-244 -48 -329 0 -86 31 -211 67 -273 68 -116 154 -174 285 -193 113 -15 214
14 294 85 137 120 219 452 169 688 -9 40 -13 74 -10 77 3 3 44 -1 92 -8 98
-14 234 -15 308 -1 28 5 51 9 51 8 1 -1 -9 -44 -22 -95 -64 -253 -47 -448 51
-596 71 -107 171 -157 315 -159 97 0 151 16 215 65 81 62 130 144 169 281 50
172 54 270 19 476 l-6 34 59 -8 c149 -20 300 -21 381 0 22 5 22 5 22 -166 0
-94 6 -232 12 -307 15 -181 63 -443 84 -458 22 -16 186 -6 201 12 6 8 14 95
18 215 3 111 10 208 15 216 6 12 22 2 77 -50 129 -121 259 -177 411 -177 213
0 359 86 501 293 65 94 156 283 213 439 47 132 46 140 -21 158 -40 11 -77 3
-97 -22 -7 -7 -37 -72 -68 -143 -135 -308 -212 -443 -308 -533 -65 -61 -109
-82 -169 -82 -92 1 -172 67 -294 240 -37 52 -80 112 -97 133 -16 21 -28 40
-26 42 2 2 34 10 71 19 217 50 419 196 560 406 77 113 100 180 106 303 4 94 3
100 -27 161 -49 99 -129 145 -257 146 -117 0 -216 -41 -327 -139 -64 -56 -150
-151 -175 -193 -9 -15 -23 -30 -31 -33 -15 -6 -13 97 9 515 13 235 12 377 -1
402 -11 20 -17 20 -125 14 -63 -4 -121 -9 -129 -12 -46 -18 -78 -310 -118
-1079 l-12 -220 -69 -9 c-91 -12 -177 3 -269 47 -75 36 -129 79 -265 212 -95
92 -149 125 -204 125 -100 0 -216 -110 -313 -297 l-38 -71 -85 -13 c-138 -21
-270 12 -375 93 -23 17 -87 75 -142 129 -126 122 -183 159 -245 159 -83 0
-191 -93 -277 -236 l-42 -69 -186 -78 c-103 -43 -193 -76 -201 -73 -8 3 -19
18 -25 33 -41 108 -127 183 -245 213 -96 25 -157 25 -256 1 -47 -11 -78 -14
-78 -8 0 5 34 54 75 107 119 156 241 344 309 479 70 140 99 215 116 309 29
160 -55 272 -205 272 -206 0 -514 -280 -748 -680 -60 -102 -62 -104 -65 -70
-1 19 13 204 32 410 28 295 33 377 23 386 -18 17 -200 26 -220 11z m954 -197
c28 -15 24 -43 -25 -170 -91 -242 -222 -468 -440 -765 -186 -252 -338 -450
-348 -454 -32 -11 46 283 133 501 125 314 265 537 478 760 67 71 151 138 173
138 5 0 18 -5 29 -10z m3998 -586 c26 -33 29 -134 6 -210 -31 -104 -170 -275
-285 -353 -61 -40 -181 -94 -237 -106 l-33 -7 25 69 c41 111 129 283 184 361
104 146 242 272 297 272 13 0 32 -12 43 -26z m-2906 -486 c37 -49 81 -143 113
-238 25 -76 28 -100 28 -225 1 -159 -11 -220 -71 -348 -35 -75 -97 -147 -126
-147 -23 0 -57 31 -76 68 -71 141 -67 424 11 717 24 92 72 205 87 205 5 0 21
-15 34 -32z m1197 2 c36 -51 100 -196 121 -277 16 -56 21 -110 22 -193 1 -139
-17 -218 -79 -346 -44 -94 -89 -144 -126 -144 -59 0 -116 140 -125 308 -10
179 61 544 127 650 24 40 33 40 60 2z m-2294 -69 c47 -28 65 -78 62 -163 -3
-68 -5 -73 -34 -93 -50 -34 -795 -309 -821 -303 -18 4 137 197 222 277 266
248 466 346 571 282z m-36 -438 c0 -9 -19 -41 -42 -72 -117 -156 -241 -272
-410 -381 -96 -62 -289 -150 -336 -153 l-27 -2 -3 125 c-3 153 3 171 71 201
82 35 731 298 740 298 4 1 7 -6 7 -16z m-1110 -605 c0 -49 -3 -58 -18 -58 -28
0 -42 20 -42 60 0 43 37 91 51 68 5 -7 9 -39 9 -70z"/>
<path d="M9805 10964 c-219 -23 -489 -81 -667 -143 -265 -94 -598 -281 -598
-337 0 -23 15 -17 102 40 172 111 488 253 617 276 97 17 180 -1 232 -50 31
-29 39 -44 39 -72 0 -48 -28 -80 -110 -128 -95 -56 -138 -117 -94 -134 49 -19
347 4 589 45 155 26 257 52 375 96 156 57 412 201 427 239 10 27 -29 53 -136
88 -272 90 -475 111 -776 80z"/>
<path d="M11435 10749 c-88 -12 -164 -47 -221 -103 -57 -55 -76 -99 -53 -122
8 -7 47 -18 87 -24 122 -17 215 -76 265 -169 65 -118 41 -208 -90 -342 -42
-43 -123 -111 -180 -150 -136 -95 -181 -135 -221 -202 -56 -92 -60 -157 -11
-170 18 -5 31 2 58 34 159 180 177 192 420 289 212 85 275 118 350 187 44 39
71 75 98 129 34 69 37 83 37 162 1 132 -46 244 -144 342 -104 104 -259 158
-395 139z"/>
<path d="M11640 9457 c0 -18 73 -87 170 -158 140 -104 185 -173 182 -278 -3
-90 -88 -206 -243 -333 -524 -431 -1310 -690 -2242 -740 -433 -23 -829 25
-1101 135 -262 105 -427 266 -466 454 -21 99 -10 150 59 288 59 118 66 145 37
145 -17 0 -89 -77 -125 -134 -81 -130 -94 -295 -34 -431 18 -38 31 -70 30 -71
-1 -1 -330 -149 -732 -329 -448 -200 -741 -337 -758 -353 -80 -75 -136 -206
-161 -374 -19 -125 -20 -191 -5 -313 16 -129 44 -228 89 -320 49 -99 95 -150
146 -164 22 -6 192 -27 379 -47 187 -20 341 -37 342 -38 1 -1 -2 -60 -7 -132
-5 -71 -12 -224 -16 -341 l-7 -212 -26 -10 c-14 -6 -57 -22 -96 -36 -76 -28
-105 -49 -105 -75 0 -25 18 -37 127 -86 53 -24 101 -48 106 -53 8 -8 -161
-121 -288 -191 -101 -56 -115 -68 -115 -100 0 -36 12 -43 113 -65 l77 -17 0
-147 c0 -80 5 -200 11 -266 l11 -120 -51 -46 c-42 -38 -56 -45 -81 -41 -55 8
-82 -43 -37 -72 12 -8 66 -24 120 -36 53 -12 97 -23 97 -24 0 -2 -24 -39 -54
-83 -55 -83 -119 -232 -155 -363 -70 -259 -69 -626 5 -885 33 -117 109 -273
174 -357 60 -78 42 -71 311 -122 103 -20 355 -69 560 -110 206 -41 561 -111
789 -156 446 -87 1045 -205 1655 -326 355 -71 382 -75 410 -61 17 8 184 113
371 234 186 120 374 241 416 268 373 240 527 341 550 363 l27 25 28 -34 c242
-293 520 -484 877 -603 149 -50 257 -68 271 -46 14 22 -10 48 -106 120 -163
121 -329 299 -402 429 l-28 50 93 -44 c196 -92 598 -162 792 -137 48 6 91 14
96 17 25 15 -15 44 -102 74 -268 94 -490 235 -720 461 -76 74 -138 141 -138
147 0 7 10 18 23 24 12 7 225 146 472 309 248 164 569 375 715 469 321 208
380 252 380 284 0 36 -26 53 -177 119 -76 33 -143 65 -149 71 -12 12 -294 993
-294 1020 0 8 8 18 19 23 10 5 66 40 124 78 110 72 134 103 104 133 -9 9 -61
19 -141 27 -70 8 -129 16 -131 18 -3 2 61 45 141 94 236 144 254 166 254 302
0 139 -47 279 -138 413 -90 133 -162 192 -254 205 -116 16 -287 51 -533 109
-269 63 -552 122 -612 127 -34 3 -57 -9 989 522 300 152 549 284 552 292 12
32 -15 48 -159 95 -81 26 -154 54 -161 61 -7 7 -24 56 -38 108 -125 473 -197
752 -194 755 2 1 32 17 68 35 110 56 140 78 140 105 0 14 -8 29 -19 35 -13 7
-289 10 -825 10 l-806 0 0 25 c0 49 -41 135 -92 190 -55 60 -163 137 -260 184
-82 39 -118 48 -118 28z m1896 -521 c1 0 -341 -167 -760 -371 -418 -203 -925
-450 -1124 -547 -200 -98 -365 -178 -367 -178 -1 0 -139 -67 -306 -148 -167
-82 -416 -203 -554 -270 l-250 -121 -135 14 c-147 16 -649 68 -880 90 -80 8
-278 28 -440 45 -162 17 -362 37 -445 45 -82 8 -303 30 -490 50 -187 19 -520
53 -740 75 -220 22 -404 42 -410 44 -5 2 6 10 25 18 19 9 317 142 662 297 346
154 630 281 632 281 3 0 37 -32 77 -70 273 -267 826 -396 1536 -360 781 40
1539 265 2061 613 210 140 425 361 463 474 l11 35 717 -7 c394 -4 717 -8 717
-9z m-23 -136 c6 -25 9 -23 -352 -190 -297 -136 -397 -186 -405 -199 -3 -5 0
-14 8 -20 10 -8 98 28 380 159 202 93 371 170 377 170 5 0 9 -6 9 -12 0 -7
-136 -81 -303 -165 -641 -323 -663 -336 -627 -358 5 -3 220 100 477 229 388
195 469 232 476 219 5 -8 5 -18 1 -22 -5 -4 -96 -47 -201 -96 -150 -68 -193
-92 -193 -106 0 -11 7 -19 15 -19 15 0 118 44 288 124 107 50 117 53 117 33 0
-8 -150 -85 -355 -183 -314 -150 -354 -172 -355 -192 0 -20 4 -22 23 -17 12 4
172 79 355 166 183 87 337 159 343 159 6 0 9 -8 7 -17 -2 -12 -66 -51 -178
-109 -96 -51 -194 -103 -217 -118 -41 -24 -58 -56 -29 -56 7 0 111 50 230 110
208 107 216 110 216 86 0 -23 -30 -40 -347 -199 -261 -131 -348 -179 -348
-193 0 -9 5 -19 12 -21 6 -2 167 75 356 171 320 163 346 174 352 155 4 -11 5
-22 3 -24 -3 -4 -101 -51 -543 -263 -280 -134 -439 -217 -443 -229 -2 -7 3
-16 11 -19 8 -3 231 99 496 225 264 127 483 231 486 231 21 0 -28 -31 -186
-117 -100 -54 -184 -104 -186 -111 -3 -7 -1 -18 5 -24 8 -8 66 19 199 90 116
62 192 97 197 92 5 -5 8 -11 5 -14 -2 -2 -133 -72 -291 -155 -158 -84 -292
-158 -298 -165 -7 -10 -6 -17 4 -25 12 -10 67 15 299 138 156 83 289 151 296
151 39 0 -35 -48 -400 -257 -223 -128 -405 -239 -407 -247 -8 -39 39 -20 264
109 132 75 310 178 397 227 87 50 161 88 164 84 13 -13 -25 -36 -352 -216
-181 -101 -338 -189 -347 -197 -21 -19 -12 -46 12 -38 16 5 162 85 654 356
l80 44 114 -39 c62 -21 110 -42 105 -46 -4 -4 -408 -210 -898 -458 -489 -248
-1108 -561 -1375 -697 -267 -135 -630 -319 -807 -408 l-322 -161 -23 29 c-13
16 -23 33 -23 38 0 5 565 292 1255 639 1847 928 2035 1024 2038 1042 2 10 -4
16 -15 17 -10 0 -762 -372 -1670 -828 -1666 -835 -1673 -838 -1673 -793 0 3
303 162 673 354 369 192 678 354 686 361 7 8 11 21 8 29 -6 15 -10 15 -39 3
-18 -8 -332 -170 -698 -361 -365 -190 -665 -346 -665 -346 -4 0 -37 71 -34 74
2 2 404 220 894 484 489 264 894 487 900 496 38 60 -33 26 -841 -410 -456
-245 -862 -464 -902 -486 -74 -41 -84 -41 -96 -2 -6 20 33 42 461 264 690 358
714 371 710 389 -1 9 -12 15 -23 14 -11 -1 -115 -51 -230 -111 -115 -60 -294
-153 -399 -207 -104 -54 -262 -136 -350 -182 -88 -46 -168 -85 -179 -86 -11
-1 -22 7 -27 21 -8 21 14 34 499 276 967 485 1097 553 1097 573 0 12 -6 17
-19 15 -11 -2 -374 -181 -807 -397 -433 -217 -789 -391 -793 -388 -3 4 -6 16
-6 28 0 22 129 92 1015 551 252 131 300 159 300 174 0 8 -7 16 -15 18 -13 2
-397 -194 -965 -492 -286 -151 -345 -180 -351 -173 -4 4 -8 25 -8 47 l-1 40
460 223 c286 139 461 230 463 239 9 45 16 48 -682 -291 -150 -73 -253 -118
-259 -112 -5 5 -7 19 -5 31 2 18 47 43 263 144 143 67 270 127 282 134 23 13
22 42 -3 42 -7 0 -129 -54 -271 -120 -141 -66 -263 -120 -271 -120 -9 0 -12
11 -10 35 l3 35 887 424 c487 233 901 432 920 443 38 22 42 37 12 41 -13 2
-361 -159 -820 -378 -978 -468 -993 -474 -1000 -467 -4 3 -3 26 0 50 l7 44
257 126 c141 69 757 368 1367 665 611 297 1225 596 1365 665 140 69 260 126
266 126 7 1 14 -8 17 -19z m-6777 -1235 c132 -14 243 -25 247 -25 5 0 -4 -19
-18 -42 -47 -76 -87 -170 -113 -268 -21 -81 -25 -118 -26 -250 -1 -169 16
-265 69 -391 15 -34 23 -64 20 -67 -3 -3 -99 4 -213 17 -145 16 -212 27 -224
38 -31 28 -88 151 -115 249 -25 91 -27 113 -28 284 0 197 9 251 59 363 26 58
71 117 91 117 7 0 120 -11 251 -25z m414 -45 c12 -8 12 -11 -2 -27 -31 -34
-127 -248 -149 -333 -19 -69 -23 -110 -22 -220 1 -147 16 -224 71 -362 29 -71
29 -73 9 -76 -29 -5 -43 14 -81 108 -54 133 -69 228 -63 394 5 154 30 261 87
381 57 119 106 163 150 135z m627 -60 c274 -27 513 -52 531 -55 l33 -6 -20
-27 c-37 -52 -100 -188 -121 -262 -31 -107 -38 -298 -16 -411 20 -95 54 -200
90 -274 l24 -50 -24 -3 c-35 -5 -1054 107 -1082 118 -38 16 -101 179 -123 320
-15 100 -6 266 21 358 31 109 153 342 179 342 6 0 234 -22 508 -50z m755 -78
l37 -7 -31 -50 c-45 -71 -94 -197 -112 -287 -20 -98 -21 -282 -1 -385 16 -86
61 -228 90 -282 l17 -34 -58 7 c-45 5 -64 12 -81 30 -26 30 -97 208 -120 303
-22 92 -22 284 1 378 19 79 89 230 135 293 33 45 46 48 123 34z m362 -37 c82
-8 153 -15 158 -15 5 0 0 -15 -11 -34 -55 -88 -91 -262 -91 -436 1 -214 29
-341 127 -569 5 -12 -4 -13 -53 -8 -446 49 -397 37 -428 107 -73 162 -98 275
-99 445 0 101 4 150 21 217 22 91 74 208 120 268 34 46 42 51 77 45 17 -3 97
-12 179 -20z m300 -33 c2 -4 -11 -39 -30 -77 -45 -92 -81 -248 -67 -286 8 -21
7 -30 -3 -41 -8 -8 -17 -43 -20 -79 -13 -142 36 -360 113 -497 36 -66 38 -81
5 -63 -38 20 -105 198 -138 367 -25 130 -23 363 4 466 21 77 62 169 90 201 16
18 37 22 46 9z m110 -83 c-88 -175 -111 -408 -60 -603 28 -109 83 -229 145
-321 22 -32 39 -61 37 -63 -2 -2 -25 0 -51 4 -43 6 -50 11 -81 61 -58 90 -97
189 -119 306 -17 87 -19 300 -5 380 22 120 113 307 151 307 17 0 15 -7 -17
-71z m323 42 c95 -9 175 -20 178 -23 3 -3 -3 -21 -13 -39 -46 -80 -57 -137
-57 -294 1 -124 5 -165 24 -235 42 -155 109 -301 199 -428 24 -35 42 -66 39
-68 -3 -3 -105 5 -228 17 l-222 23 -44 60 c-128 174 -202 376 -203 557 0 86
25 228 52 293 23 55 86 156 96 156 4 0 85 -9 179 -19z m525 -183 c-2 -106 2
-163 22 -278 47 -277 109 -427 273 -658 16 -23 16 -24 -12 -20 -25 3 -40 20
-102 118 -185 290 -272 545 -260 764 6 129 29 206 60 206 22 0 22 -2 19 -132z
m2468 -221 c246 -129 469 -251 466 -254 -1 -2 -142 -36 -312 -77 -324 -79
-549 -134 -1494 -364 -316 -77 -681 -166 -810 -198 -129 -31 -414 -100 -633
-154 l-398 -98 -147 59 c-221 87 -1230 483 -1287 505 -29 11 -43 20 -33 22 10
2 145 -11 300 -28 156 -17 402 -44 548 -60 672 -74 1641 -180 1702 -186 61 -6
70 -4 120 23 29 17 330 170 668 341 338 171 725 367 860 436 135 69 252 125
260 125 8 1 94 -41 190 -92z m455 -48 c143 -33 322 -74 399 -89 76 -16 141
-31 143 -34 3 -2 -10 -12 -29 -22 -18 -9 -83 -45 -144 -80 -62 -35 -117 -64
-123 -64 -6 0 -37 26 -69 59 -55 57 -81 73 -422 265 -36 20 -54 34 -40 31 14
-2 142 -32 285 -66z m752 -212 c107 -115 186 -304 187 -448 1 -62 -3 -81 -18
-98 -17 -19 -400 -271 -412 -271 -2 0 -4 10 -4 23 0 119 -83 400 -161 546 -28
52 -47 97 -43 98 5 2 90 50 189 108 99 57 185 104 191 104 7 1 38 -27 71 -62z
m-597 -114 c139 -158 247 -446 257 -688 4 -99 -7 -248 -19 -260 -2 -2 -17 -7
-33 -11 -29 -7 -29 -6 -13 12 71 82 35 438 -68 662 -84 184 -190 314 -230 281
-23 -19 -17 -35 40 -117 66 -94 104 -170 144 -284 51 -144 65 -243 58 -395 -6
-121 -5 -134 12 -151 18 -18 15 -20 -157 -66 -520 -138 -817 -216 -830 -216
-7 0 -11 6 -8 14 16 41 17 159 3 254 -34 226 -160 494 -331 708 l-25 31 217
53 c120 29 369 90 553 135 184 46 347 83 362 84 20 1 37 -11 68 -46z m-5671
-203 c341 -152 1263 -566 1331 -598 80 -37 329 -147 351 -155 9 -3 22 -1 30 4
12 7 11 12 -6 27 -23 21 -76 46 -480 225 -681 303 -1274 571 -1270 575 9 9
152 -23 176 -40 22 -17 200 -89 659 -268 506 -198 953 -375 999 -398 67 -32
114 -94 190 -247 101 -202 136 -360 128 -575 -4 -107 -10 -154 -31 -225 -15
-49 -31 -94 -36 -99 -5 -5 -29 -1 -57 11 -56 23 -56 19 -18 158 23 84 28 126
32 262 5 145 3 173 -17 255 -12 51 -33 120 -47 153 -31 76 -108 201 -128 209
-31 11 -26 -24 11 -84 20 -33 34 -63 31 -66 -3 -4 -96 24 -207 61 -198 65
-245 74 -245 46 0 -10 79 -41 245 -96 l244 -81 18 -40 c25 -56 24 -77 -4 -68
-146 46 -242 73 -249 68 -31 -19 0 -36 140 -81 118 -38 151 -52 155 -68 8 -28
7 -95 0 -95 -4 0 -111 32 -238 70 -243 73 -276 80 -276 55 0 -21 10 -24 280
-106 215 -65 280 -89 239 -89 -8 0 -41 7 -72 15 -66 17 -123 19 -132 6 -9 -15
21 -27 123 -51 64 -15 92 -26 92 -36 0 -24 -20 -24 -150 0 -130 24 -153 24
-148 -1 2 -11 43 -24 142 -44 76 -15 141 -30 144 -33 7 -7 -7 -74 -17 -80 -5
-3 -104 29 -220 70 -116 42 -218 73 -227 70 -39 -15 13 -43 218 -116 187 -68
213 -80 216 -100 3 -19 0 -22 -15 -16 -68 27 -514 177 -539 182 -33 6 -48 -4
-35 -24 6 -9 284 -111 524 -190 40 -14 46 -19 41 -36 -3 -12 -10 -25 -13 -29
-8 -8 -194 65 -504 197 -98 42 -182 76 -187 76 -6 0 -10 3 -10 8 0 27 43 179
65 227 28 64 97 165 142 207 l28 27 75 -34 c41 -19 80 -35 86 -35 22 0 23 29
1 43 -12 8 -164 78 -337 156 -173 78 -362 164 -420 190 -252 115 -280 125
-294 103 -9 -16 10 -29 104 -70 52 -22 125 -55 162 -71 l67 -31 -52 -54 c-83
-86 -173 -265 -202 -399 -4 -21 -9 -26 -18 -19 -7 6 -163 80 -347 165 -485
223 -690 321 -690 327 0 3 24 14 53 24 l53 18 279 -127 c437 -198 465 -209
465 -171 0 14 -4 16 -392 190 -349 156 -338 150 -338 186 l0 30 50 -20 c28
-11 69 -29 90 -40 47 -24 66 -25 74 -5 7 19 -19 36 -119 75 -94 37 -98 40 -93
73 l3 26 135 -58 c74 -32 194 -86 265 -121 285 -137 309 -146 303 -112 -4 22
-338 188 -550 274 -157 63 -158 63 -158 95 l0 32 69 -24 c62 -21 71 -22 82 -8
16 19 6 25 -79 54 -61 20 -84 41 -66 59 9 8 148 -42 502 -184 106 -43 205 -78
220 -79 35 -3 36 23 2 40 -67 34 -687 273 -708 273 -7 0 -12 16 -12 41 0 49
-17 51 173 -22 106 -41 140 -50 149 -41 20 20 -3 33 -160 93 -122 46 -148 59
-150 77 -2 16 2 22 15 22 18 0 334 -106 455 -153 56 -21 69 -23 78 -12 9 11 6
17 -15 31 -33 22 -237 96 -407 149 -112 35 -128 43 -128 62 0 12 3 29 6 38 12
31 96 7 303 -85z m4415 -81 c14 -16 55 -74 90 -127 166 -250 256 -513 243
-711 -9 -141 -9 -141 -134 -173 -59 -15 -108 -27 -109 -25 -1 1 2 25 6 52 14
83 11 287 -5 374 -16 82 -64 221 -106 303 -29 58 -112 182 -162 241 -22 26
-37 50 -34 53 8 8 138 42 164 43 12 1 32 -12 47 -30z m-180 -198 c156 -234
224 -481 198 -717 -10 -86 -20 -129 -36 -151 -2 -2 -965 -259 -1110 -297 l-58
-15 6 27 c45 204 16 447 -80 679 -45 112 -82 176 -156 273 -32 43 -58 80 -58
83 0 3 12 7 28 9 46 8 1117 270 1122 275 8 8 95 -91 144 -166z m-1341 -193
c123 -146 220 -359 258 -568 23 -128 9 -398 -22 -436 -11 -14 -207 -69 -215
-61 -3 3 0 49 7 103 36 288 -51 658 -208 888 -29 43 -52 80 -51 81 4 3 161 43
175 44 6 1 31 -23 56 -51z m-290 -69 c139 -159 237 -476 237 -767 0 -162 -15
-250 -44 -263 -11 -5 -97 -29 -191 -54 -93 -25 -232 -61 -307 -82 -76 -20
-140 -34 -143 -31 -3 2 5 40 17 84 32 115 32 370 0 499 -41 164 -104 310 -192
447 -29 44 -37 64 -28 67 22 8 582 149 595 150 6 1 31 -22 56 -50z m3632 -87
c22 -6 8 -18 -120 -105 l-144 -98 13 38 c7 21 19 71 26 112 l14 73 93 -7 c52
-4 105 -10 118 -13z m-280 -211 c-6 -5 -89 -60 -185 -123 -96 -63 -438 -290
-760 -503 -677 -449 -1314 -871 -1754 -1162 l-308 -205 -157 41 c-245 63
-1587 401 -1679 423 -46 11 -81 22 -79 25 3 2 110 -21 239 -52 959 -231 1232
-295 1256 -295 20 0 472 266 1471 865 l1442 865 137 36 c75 20 182 49 237 64
104 29 156 36 140 21z m184 -43 c7 -24 14 -50 17 -59 4 -16 -51 -51 -488 -308
-170 -101 -188 -115 -169 -134 15 -15 20 -12 383 204 147 88 274 162 281 165
10 4 18 -8 26 -41 6 -25 9 -50 6 -55 -3 -5 -75 -51 -160 -101 -109 -65 -155
-98 -155 -111 0 -32 31 -20 185 72 127 76 151 87 156 72 4 -9 5 -20 2 -24 -2
-4 -47 -33 -101 -64 -393 -230 -832 -499 -832 -510 0 -7 5 -16 11 -19 11 -7
75 29 564 320 422 251 378 230 390 185 6 -24 -6 -33 -171 -139 -97 -63 -178
-121 -181 -129 -17 -43 24 -26 191 79 98 61 179 109 181 107 1 -1 5 -13 9 -24
6 -19 -21 -39 -239 -179 -183 -118 -245 -163 -245 -178 0 -15 5 -18 23 -15 12
2 125 71 250 152 126 81 230 146 232 144 2 -1 6 -14 9 -28 6 -22 0 -28 -54
-57 -32 -18 -243 -146 -467 -285 -224 -140 -498 -309 -608 -376 -234 -144
-295 -187 -295 -207 0 -21 27 -19 58 4 15 10 149 93 297 184 344 210 516 316
790 487 217 136 291 178 299 169 2 -2 6 -13 8 -23 2 -16 -37 -45 -202 -148
-223 -140 -405 -259 -487 -320 -51 -37 -68 -68 -39 -68 7 0 101 57 207 127
243 158 526 333 539 333 5 0 10 -7 10 -15 0 -15 -99 -84 -342 -239 -76 -48
-138 -94 -138 -102 0 -39 56 -9 375 198 65 42 121 75 123 73 14 -13 -23 -41
-167 -130 -174 -106 -202 -128 -183 -147 9 -9 54 14 184 93 94 57 175 106 180
107 4 2 8 -8 8 -22 0 -32 -42 -56 -395 -235 -537 -270 -895 -469 -895 -495 0
-27 28 -24 83 9 31 19 96 55 144 81 48 26 122 66 164 90 41 23 251 132 466
242 214 110 408 211 429 226 21 14 44 26 51 26 17 0 83 -32 83 -40 0 -6 -344
-215 -590 -358 -77 -44 -390 -235 -613 -373 -80 -50 -102 -76 -71 -86 6 -2
150 81 320 183 170 103 381 230 469 282 295 175 490 291 519 311 27 18 31 18
62 3 19 -9 34 -19 34 -23 0 -4 -106 -76 -236 -161 -129 -84 -472 -310 -760
-501 -289 -192 -527 -347 -528 -345 -22 28 -398 595 -399 602 -1 5 108 63 243
130 134 67 246 127 248 133 2 7 -3 16 -12 19 -16 6 -126 -45 -721 -333 -203
-99 -395 -191 -425 -206 -232 -108 -648 -310 -667 -322 -25 -16 -31 -45 -10
-45 6 0 124 52 261 117 l248 117 55 -30 c112 -60 268 -228 402 -433 33 -51 61
-96 61 -100 0 -3 -33 -23 -73 -43 -157 -81 -640 -369 -894 -534 -104 -68 -138
-104 -97 -104 9 0 136 74 283 164 346 213 463 282 651 388 l155 87 22 -27 c13
-15 23 -30 23 -33 0 -3 -16 -13 -36 -23 -20 -9 -160 -96 -310 -194 -151 -97
-314 -202 -362 -233 -48 -31 -210 -135 -360 -232 -150 -97 -276 -177 -280
-177 -4 0 -21 17 -37 38 -140 172 -216 343 -252 566 -20 127 -13 465 11 564
30 121 74 218 115 255 36 33 209 148 1216 815 605 401 1827 1212 1865 1237 19
13 40 24 46 24 6 1 16 -18 23 -41z m-6298 -54 c329 -160 695 -317 727 -311 20
4 23 1 18 -17 -2 -11 -8 -42 -11 -68 -4 -27 -11 -48 -16 -48 -4 0 -198 43
-431 96 -233 52 -495 111 -583 130 -88 19 -164 36 -169 37 -8 3 27 26 273 179
42 26 81 48 87 48 6 0 53 -21 105 -46z m5289 -108 c0 -2 -44 -30 -97 -61 -54
-32 -159 -95 -233 -140 -238 -144 -1859 -1115 -1863 -1115 -2 0 -3 55 -3 123
-1 206 -56 359 -174 479 l-66 68 35 10 c29 7 772 205 1206 320 342 91 482 128
625 166 143 37 560 150 568 153 1 1 2 -1 2 -3z m-4175 -248 c12 -143 69 -335
133 -448 79 -140 155 -218 182 -185 9 11 3 39 -29 132 -34 100 -61 213 -61
260 0 6 50 -11 113 -39 144 -64 549 -227 651 -262 95 -32 116 -34 179 -11 l49
18 101 -32 c56 -17 107 -31 113 -31 11 0 24 -21 48 -82 10 -25 11 -38 4 -38
-6 0 -164 42 -352 94 -519 144 -529 147 -539 137 -18 -18 1 -37 49 -49 190
-46 858 -240 862 -250 3 -9 -4 -11 -20 -8 -12 3 -113 26 -223 50 -438 98 -523
116 -558 116 -50 0 -50 -26 1 -39 113 -28 763 -171 778 -171 23 0 51 -17 42
-25 -3 -3 -51 -1 -105 6 -106 13 -144 9 -124 -15 6 -7 53 -19 104 -26 110 -16
137 -24 137 -45 0 -19 1 -19 -126 10 -115 28 -149 29 -149 5 0 -11 38 -24 142
-49 129 -31 142 -37 148 -59 3 -13 4 -26 2 -29 -2 -2 -152 26 -333 62 -181 36
-336 65 -345 65 -29 0 -31 -30 -4 -40 14 -5 163 -37 332 -70 170 -34 318 -64
331 -67 18 -4 22 -12 22 -44 0 -21 -2 -39 -5 -39 -5 0 -291 62 -621 135 -61
14 -121 25 -133 25 -30 0 -29 -38 2 -45 118 -26 327 -71 487 -105 270 -58 270
-58 270 -78 -1 -45 -10 -45 -186 -2 -93 23 -335 81 -539 130 -380 91 -1110
267 -1430 344 -99 24 -355 86 -570 137 -214 51 -392 94 -394 96 -7 5 51 62 69
68 9 3 71 -8 136 -24 65 -17 205 -50 309 -75 105 -25 246 -61 313 -80 116 -32
152 -36 152 -15 0 25 -119 60 -531 159 -159 38 -307 74 -329 80 l-40 11 0 80
c0 77 1 79 23 74 12 -2 99 -18 192 -34 548 -97 676 -114 690 -91 13 21 -8 29
-145 48 -320 46 -770 127 -770 139 0 18 1 18 320 -27 157 -22 293 -40 303 -40
10 0 17 8 17 19 0 24 -15 27 -370 76 -146 21 -268 39 -272 42 -5 2 -8 11 -8
19 0 17 20 16 274 -17 188 -24 252 -34 398 -60 113 -21 148 -21 148 0 0 18
-34 30 -136 47 -64 11 -103 23 -111 33 -9 13 -16 14 -30 5 -13 -8 -36 -9 -73
-3 -91 15 -392 49 -432 49 -28 0 -38 4 -38 16 0 12 8 14 43 10 102 -14 288
-35 355 -42 68 -6 72 -5 72 14 0 26 -7 27 -257 54 l-213 22 0 39 c0 32 3 37
18 33 31 -9 784 -176 942 -209 l155 -32 6 -80 c8 -97 23 -155 48 -187 18 -20
21 -21 34 -8 8 8 29 62 47 120 34 110 73 196 123 270 37 54 110 140 118 140 4
0 10 -37 14 -82z m1765 -487 c66 -65 116 -157 147 -271 21 -79 25 -302 5 -337
-9 -17 -251 -173 -268 -173 -2 0 -4 28 -4 63 0 102 -20 287 -40 372 -16 68
-58 196 -84 257 -6 13 11 32 75 82 46 36 89 66 96 66 7 0 40 -27 73 -59z
m-260 25 c0 -10 -69 -46 -88 -46 -44 0 -29 19 26 33 31 8 58 15 60 16 1 1 2
-1 2 -3z m-2900 -310 c0 -2 -11 -36 -25 -77 -80 -234 -118 -458 -118 -709 0
-174 1 -192 31 -312 37 -149 87 -288 149 -412 l44 -88 -38 7 c-49 9 -88 46
-146 143 -55 91 -108 247 -133 387 -26 148 -24 412 5 570 25 135 74 292 122
387 47 94 66 117 89 111 11 -3 20 -6 20 -7z m1039 -261 c317 -80 584 -148 593
-151 16 -5 14 -11 -13 -57 -62 -107 -108 -229 -146 -387 -15 -61 -18 -118 -18
-300 1 -208 3 -233 27 -335 51 -211 97 -319 124 -292 4 4 -9 60 -29 124 -67
221 -72 254 -72 513 0 222 2 240 27 337 32 120 74 223 129 314 l40 66 299 -75
300 -76 -25 -30 c-90 -110 -179 -313 -217 -491 -20 -93 -23 -139 -23 -305 0
-209 19 -342 71 -509 13 -41 21 -77 18 -80 -2 -3 -111 16 -242 42 -130 26
-275 54 -322 64 -47 9 -314 62 -595 117 l-510 101 -61 120 c-61 123 -100 231
-131 365 -13 57 -17 122 -17 270 0 173 3 209 27 320 28 132 76 288 109 355 24
48 71 125 77 125 2 0 263 -65 580 -145z m258 29 c-3 -3 -12 -4 -19 -1 -8 3 -5
6 6 6 11 1 17 -2 13 -5z m40 -10 c-3 -3 -12 -4 -19 -1 -8 3 -5 6 6 6 11 1 17
-2 13 -5z m40 -10 c-3 -3 -12 -4 -19 -1 -8 3 -5 6 6 6 11 1 17 -2 13 -5z m40
-10 c-3 -3 -12 -4 -19 -1 -8 3 -5 6 6 6 11 1 17 -2 13 -5z m40 -10 c-3 -3 -12
-4 -19 -1 -8 3 -5 6 6 6 11 1 17 -2 13 -5z m1466 -465 c89 -23 165 -43 168
-45 3 -2 -14 -42 -37 -89 -172 -342 -148 -830 61 -1245 20 -39 35 -75 33 -79
-3 -7 -535 93 -543 101 -11 12 -73 159 -96 229 -50 154 -64 241 -63 399 1 181
21 257 128 475 65 131 166 295 182 295 3 0 78 -18 167 -41z m397 -111 c0 -5
-11 -30 -24 -56 -123 -243 -128 -753 -10 -1048 31 -79 101 -201 151 -268 36
-47 36 -49 13 -43 -14 3 -65 13 -115 22 -49 10 -98 21 -108 26 -24 13 -120
214 -157 329 -57 177 -80 319 -80 496 0 135 4 175 25 264 35 147 79 252 127
306 l19 21 80 -20 c43 -10 79 -24 79 -29z"/>
<path d="M13117 6193 c-13 -12 -7 -44 17 -91 39 -77 58 -157 65 -276 l6 -111
27 -3 c38 -4 50 24 51 122 2 155 -81 366 -143 366 -9 0 -20 -3 -23 -7z"/>
<path d="M12645 4597 c-208 -110 -596 -348 -920 -563 -256 -170 -345 -237
-345 -259 0 -27 31 -16 99 34 182 135 873 573 1090 691 184 101 206 115 206
130 0 28 -30 20 -130 -33z"/>
<path d="M12678 4275 c-153 -95 -308 -210 -308 -226 0 -29 43 -9 186 86 250
167 244 163 238 180 -9 23 -22 19 -116 -40z"/>
<path d="M11445 3699 c-303 -153 -693 -366 -793 -434 l-36 -24 -11 22 c-7 15
-20 22 -39 22 -25 0 -31 -6 -47 -48 -48 -122 -63 -223 -63 -417 0 -198 11
-280 59 -421 46 -135 175 -348 222 -366 20 -8 48 10 47 30 -1 8 -26 53 -56 99
-30 45 -62 97 -71 115 l-17 31 43 25 c303 174 492 278 752 412 163 84 197 107
177 127 -9 9 -29 2 -89 -27 -139 -68 -624 -330 -758 -409 -71 -42 -133 -76
-137 -76 -11 0 -30 51 -24 64 2 6 103 69 224 139 121 71 223 135 226 143 10
25 -20 26 -66 3 -23 -12 -118 -66 -210 -120 -91 -55 -173 -102 -182 -105 -20
-8 -39 55 -22 73 33 34 615 384 853 512 158 86 184 104 166 122 -24 24 -468
-224 -938 -525 -88 -56 -100 -61 -103 -44 -2 11 -1 25 1 33 6 15 373 236 587
353 139 76 181 112 129 112 -33 0 -371 -186 -599 -330 -58 -36 -111 -69 -117
-74 -10 -5 -13 6 -13 43 0 59 -20 43 230 189 142 83 176 111 152 126 -14 8
-98 -35 -239 -123 -72 -44 -136 -81 -141 -81 -20 0 28 287 50 302 125 83 456
269 781 437 104 55 177 98 177 107 0 22 -39 16 -105 -17z"/>
<path d="M11323 3297 c-192 -96 -225 -119 -205 -139 11 -11 438 196 445 216 7
17 -1 26 -22 26 -9 -1 -107 -47 -218 -103z"/>
<path d="M8110 4295 c0 -19 16 -25 181 -69 74 -19 177 -46 229 -60 138 -36
400 -103 433 -110 25 -6 28 -4 25 16 -3 26 0 25 -263 93 -99 26 -264 69 -366
96 -200 53 -239 58 -239 34z"/>
<path d="M8870 3418 c-53 -112 -70 -204 -70 -367 0 -189 39 -411 77 -443 24
-20 32 9 16 61 -27 91 -45 238 -46 381 -1 161 12 228 63 339 35 75 37 91 9 91
-15 0 -27 -16 -49 -62z"/>
<path d="M11197 9383 c-11 -17 21 -50 92 -96 38 -25 78 -58 90 -73 51 -65 5
-181 -122 -300 -206 -196 -589 -342 -1127 -428 -657 -106 -1252 -89 -1605 45
-153 59 -215 111 -215 183 0 53 27 107 104 209 56 74 66 107 32 107 -31 0
-113 -70 -158 -136 -125 -183 -94 -300 104 -400 336 -169 899 -217 1571 -133
501 62 886 169 1142 316 112 65 179 115 260 197 161 163 190 318 77 417 -67
59 -228 119 -245 92z"/>
<path d="M4890 7912 c-57 -58 -59 -98 -47 -802 5 -245 13 -462 18 -484 15 -57
47 -83 110 -91 30 -4 162 -5 294 -3 266 3 287 8 326 71 45 74 63 164 64 312 0
160 -9 203 -60 266 -41 52 -43 72 -11 119 72 107 84 324 24 444 -73 147 -205
196 -531 196 l-159 0 -28 -28z m406 -307 c23 -10 39 -26 49 -49 19 -46 19
-116 -1 -144 -13 -19 -24 -22 -84 -22 -93 0 -100 8 -100 115 0 46 3 90 6 99 8
21 82 21 130 1z m31 -516 c43 -14 63 -59 63 -146 0 -37 -4 -73 -8 -79 -12 -19
-51 -35 -104 -43 -46 -8 -54 -6 -74 14 -26 26 -37 95 -32 195 l3 65 40 5 c42
6 61 4 112 -11z"/>
<path d="M2316 7890 c-210 -93 -311 -244 -366 -548 -44 -243 -13 -428 103
-613 100 -159 188 -204 397 -203 136 1 175 10 265 65 63 39 96 79 102 127 5
34 1 41 -31 70 -20 17 -54 37 -76 43 -43 13 -43 13 -135 -39 -20 -11 -52 -17
-96 -17 -60 0 -70 3 -122 39 -64 44 -102 101 -136 203 -17 50 -21 87 -21 192
0 258 77 412 220 439 59 11 93 1 140 -42 58 -52 105 -47 179 20 32 29 41 43
41 70 0 52 -19 82 -84 131 -89 67 -137 86 -231 90 -72 3 -87 0 -149 -27z"/>
<path d="M3092 7885 c-23 -10 -39 -28 -55 -62 -22 -48 -22 -51 -21 -615 0
-515 2 -570 18 -612 10 -25 27 -51 38 -57 32 -17 495 -2 524 18 33 21 47 65
42 133 -7 94 -17 100 -181 109 -89 4 -140 11 -151 20 -13 11 -16 37 -16 160 0
191 -18 645 -30 741 -12 93 -26 145 -46 165 -19 19 -78 19 -122 0z"/>
<path d="M3923 7886 c-67 -30 -90 -134 -97 -454 -9 -332 14 -547 71 -692 54
-136 101 -181 235 -226 67 -22 92 -26 147 -21 104 8 167 32 223 85 128 120
157 291 158 932 0 296 -1 317 -20 347 -22 37 -54 48 -108 40 -44 -7 -77 -42
-91 -95 -13 -50 -38 -356 -46 -567 -11 -311 -50 -448 -133 -476 -67 -22 -121
14 -166 111 -20 43 -21 60 -21 480 -1 239 -4 449 -8 466 -16 64 -83 97 -144
70z"/>
</g>
</svg>
